<?xml version="1.0" encoding="utf-8"?>
<!-- Generator: Adobe Illustrator 24.2.3, SVG Export Plug-In . SVG Version: 6.00 Build 0)  -->
<svg version="1.1" id="Calque_1" xmlns="http://www.w3.org/2000/svg" xmlns:xlink="http://www.w3.org/1999/xlink" x="0px"
     y="0px"
     viewBox="0 0 20.69 15.23" style="enable-background:new 0 0 20.69 15.23;" xml:space="preserve">
    <style type="text/css">
.st0{fill:#000;}
.st1{fill:none;stroke:#000;stroke-width:0.1677;stroke-miterlimit:10;}
</style>
    <g>
<g>
<path class="st0" d="M2.52,7.69h0.31v0.27L2.82,7.95v0.01h0.01c0.14-0.23,0.43-0.32,0.66-0.32c0.2,0,0.63,0.09,0.81,0.44
c0.18-0.35,0.61-0.44,0.81-0.44c0.37,0,0.97,0.21,0.97,0.99v1.37H5.77V8.66c0-0.25-0.05-0.37-0.11-0.48
c-0.1-0.16-0.29-0.28-0.55-0.28c-0.26,0-0.45,0.12-0.55,0.28C4.5,8.28,4.45,8.4,4.45,8.66v1.34H4.14V8.66
c0-0.25-0.05-0.37-0.11-0.48c-0.1-0.16-0.29-0.28-0.55-0.28c-0.26,0-0.45,0.12-0.55,0.28C2.87,8.28,2.83,8.4,2.83,8.66v1.34H2.52
V7.69z"/>
    <path class="st0" d="M9.19,9.99H8.88v-0.4H8.87c-0.27,0.38-0.69,0.46-0.94,0.46c-0.76,0-1.3-0.55-1.3-1.21
c0-0.61,0.51-1.2,1.3-1.2c0.26,0,0.69,0.08,0.94,0.46h0.01v-0.4h0.31V9.99z M7.93,9.78c0.52,0,0.97-0.4,0.97-0.94
c0-0.51-0.41-0.95-0.97-0.95c-0.53,0-0.99,0.37-0.99,0.95C6.94,9.36,7.34,9.78,7.93,9.78z"/>
    <path class="st0" d="M9.9,6.88h0.31v1.11h0.01c0.09-0.14,0.33-0.35,0.74-0.35c0.3,0,0.54,0.07,0.77,0.28
c0.18,0.17,0.3,0.43,0.3,0.81v1.27h-0.31V8.72c0-0.3-0.1-0.51-0.23-0.63c-0.17-0.16-0.39-0.2-0.53-0.2c-0.14,0-0.36,0.04-0.53,0.2
c-0.13,0.12-0.23,0.33-0.23,0.63v1.27H9.9V6.88z"/>
    <path class="st0" d="M15.23,9.99h-0.31v-0.4h-0.01c-0.27,0.38-0.69,0.46-0.94,0.46c-0.76,0-1.3-0.55-1.3-1.21
c0-0.61,0.51-1.2,1.3-1.2c0.26,0,0.69,0.08,0.94,0.46h0.01v-0.4h0.31V9.99z M13.97,9.78c0.52,0,0.97-0.4,0.97-0.94
c0-0.51-0.41-0.95-0.97-0.95c-0.53,0-0.99,0.37-0.99,0.95C12.98,9.36,13.37,9.78,13.97,9.78z"/>
</g>
</g>
    <path class="st1" d="M0.64,7.06c0,0,0.65-5.84,11.44-6.02c0,0,8.97-0.31,8.29,6.93c0,0,0.15,6.02-7.56,6.53
C12.8,14.49-0.62,15.03,0.64,7.06z"/>
    <path class="st1" d="M0.7,8.97c0,0-0.63-5.85,9.86-8.4c0,0,8.68-2.28,9.59,4.93c0,0,1.45,5.85-5.97,8.04
C14.18,13.54,1.2,17.03,0.7,8.97z"/>
    <path class="st0" d="M4.59,12.61c0,0,0.18,0.19-0.13,0.56c0,0-0.25,0.31-0.47,0.08c0,0-0.2-0.17,0-0.45
C3.99,12.81,4.36,12.33,4.59,12.61z"/>
    <path class="st0" d="M16.03,0.49c0,0,0.14-0.39,0.89-0.23c0,0,0.63,0.13,0.46,0.62c0,0-0.09,0.42-0.63,0.33
C16.75,1.21,15.81,1.02,16.03,0.49z"/>
</svg>
